<svg width="324" height="32" viewBox="0 0 324 32" fill="none" xmlns="http://www.w3.org/2000/svg">
<path d="M65.9917 23.2868C66.0008 22.8586 65.9156 22.4338 65.742 22.0424C65.5684 21.6511 65.3108 21.3029 64.9875 21.0228C64.2097 20.3984 63.3536 19.8789 62.4411 19.4775C61.401 18.9744 60.325 18.5072 59.1056 18.0041C57.9344 17.5173 56.8264 16.8898 55.806 16.1355C54.7898 15.3977 53.9252 14.4703 53.2596 13.4042C52.5372 12.1382 52.1889 10.6924 52.2554 9.23559C52.2305 7.91827 52.4746 6.60978 52.9727 5.39041C53.4507 4.33408 54.1767 3.40935 55.0887 2.69517C56.0395 1.96444 57.1239 1.42726 58.2807 1.11396C59.625 0.752446 61.0136 0.58307 62.4052 0.610847C64.0647 0.60212 65.7215 0.746457 67.3545 1.04207C68.6941 1.28595 69.9883 1.73443 71.1921 2.37176L69.3271 7.33096C68.4447 6.81753 67.4892 6.44188 66.4938 6.21694C65.1575 5.87724 63.7838 5.70819 62.4052 5.71383C61.2921 5.64558 60.1864 5.93513 59.2491 6.54035C58.9013 6.78909 58.6187 7.11831 58.4251 7.49996C58.2315 7.88161 58.1328 8.3044 58.1372 8.73248C58.1357 9.14744 58.2286 9.55729 58.4088 9.9309C58.5891 10.3045 58.8519 10.6321 59.1773 10.8887C59.9416 11.5333 60.7853 12.0768 61.6879 12.5058L65.0233 14.0152C66.1877 14.516 67.2941 15.1427 68.3229 15.8839C69.348 16.6116 70.2144 17.5409 70.8693 18.615C71.5916 19.8286 71.9409 21.2286 71.8735 22.64C71.9137 24.0703 71.6445 25.4923 71.0845 26.8086C70.5629 27.9291 69.8042 28.9224 68.8609 29.7195C67.7878 30.5211 66.5698 31.1069 65.2744 31.4444C63.8096 31.8177 62.3026 31.9989 60.7913 31.9834C58.8841 32.0234 56.9796 31.8181 55.1246 31.3725C53.8888 31.1122 52.6858 30.7144 51.5381 30.1866L53.4389 25.1196C53.8322 25.3382 54.2395 25.5303 54.6583 25.6945C55.2087 25.9186 55.7715 26.1106 56.344 26.2695L58.3524 26.7008C59.0807 26.7555 59.812 26.7555 60.5402 26.7008C61.9321 26.7789 63.3194 26.4811 64.5571 25.8383C64.9926 25.57 65.3529 25.1949 65.6039 24.7485C65.8548 24.3021 65.9883 23.7991 65.9917 23.2868Z" fill="white"/>
<path d="M97.1944 6.46871H88.4075V31.3727H82.5257V6.46871H73.7029V1.18604H97.1944V6.46871Z" fill="white"/>
<path d="M100.243 1.50908L102.359 1.18566L104.654 0.934082H106.878H108.85C110.246 0.939218 111.639 1.07153 113.011 1.32939C114.271 1.57237 115.483 2.02164 116.597 2.65908C117.671 3.29384 118.561 4.19799 119.179 5.28243C119.868 6.56022 120.203 7.99977 120.148 9.45108C120.247 11.5978 119.642 13.7181 118.426 15.4884C117.273 17.0391 115.65 18.1738 113.8 18.7227L115.916 20.0523L122.802 31.552H116.023L109.173 19.7648L106.053 19.1898V31.552H100.171L100.243 1.50908ZM109.281 6.03706H107.487C107.035 5.98511 106.577 5.98511 106.125 6.03706V14.7697H108.635C110.026 14.8515 111.404 14.4588 112.544 13.6556C113.048 13.2101 113.443 12.6541 113.698 12.0308C113.953 11.4076 114.062 10.7339 114.015 10.062C114.045 9.4947 113.951 8.92763 113.741 8.40017C113.53 7.87271 113.208 7.39746 112.795 7.00737C111.783 6.26044 110.532 5.91484 109.281 6.03706Z" fill="white"/>
<path d="M126.137 1.18604H144.069V6.46871H132.055V13.656H142.814V18.9387H132.055V26.126H144.213V31.3727H126.28L126.137 1.18604Z" fill="white"/>
<path d="M163.473 24.868H154.219L151.924 31.5522H146.042L156.802 1.1499H161.141L171.901 31.5522H165.696L163.473 24.868ZM155.726 20.1244H162.181L159.922 13.4043L159.025 8.66068H158.81L157.914 13.4402L155.726 20.1244Z" fill="white"/>
<path d="M198.011 15.7403L198.656 9.73889H198.405L196.54 14.5544L190.156 25.8385H188.256L181.477 14.5185L179.612 9.73889H179.397L180.258 15.7044V31.3727H174.734V1.18604H180.114L188.148 14.9857L189.582 18.5793L190.838 14.9857L198.477 1.25787H203.821V31.4446H197.903L198.011 15.7403Z" fill="white"/>
<path d="M209.093 1.50908L211.209 1.18566L213.505 0.934082H215.692H217.701C219.085 0.939203 220.465 1.07153 221.825 1.32939C223.086 1.57237 224.297 2.02164 225.412 2.65908C226.499 3.28888 227.401 4.19346 228.03 5.28243C228.719 6.56022 229.053 7.99977 228.998 9.45108C229.079 11.5957 228.476 13.7104 227.277 15.4884C226.115 17.0298 224.495 18.1622 222.65 18.7227L224.766 20.0523L231.652 31.552H224.946L218.095 19.7648L215.011 19.1898V31.552H209.129L209.093 1.50908ZM218.131 6.03706H216.338C215.885 5.98511 215.428 5.98511 214.975 6.03706V14.7697H217.486C218.876 14.8458 220.252 14.4537 221.395 13.6556C221.899 13.2101 222.294 12.6541 222.549 12.0308C222.804 11.4076 222.912 10.7339 222.865 10.062C222.888 9.4955 222.792 8.93052 222.581 8.40412C222.371 7.87771 222.053 7.40174 221.646 7.00737C220.634 6.26044 219.382 5.91484 218.131 6.03706Z" fill="#E52038"/>
<path d="M232.621 16.2791C232.352 12.1444 233.518 8.04384 235.92 4.67159C237.079 3.29957 238.542 2.21788 240.192 1.51283C241.842 0.807785 243.634 0.498872 245.425 0.610744C247.36 0.562538 249.283 0.942916 251.055 1.72477C252.631 2.43652 254 3.53692 255.036 4.92312C256.162 6.39238 256.969 8.08177 257.403 9.88238C257.957 11.9684 258.223 14.1207 258.192 16.2791C258.459 20.4301 257.28 24.5452 254.857 27.9225C253.702 29.2802 252.25 30.3528 250.614 31.0571C248.978 31.7613 247.202 32.0783 245.425 31.9833C243.465 32.035 241.518 31.6547 239.722 30.8693C238.146 30.1576 236.777 29.0571 235.741 27.6709C234.641 26.1907 233.848 24.5043 233.41 22.7117C232.854 20.6138 232.589 18.4494 232.621 16.2791ZM238.825 16.2791C238.819 17.6902 238.951 19.0984 239.22 20.4836C239.421 21.646 239.821 22.7646 240.403 23.7898C240.891 24.6709 241.595 25.413 242.448 25.946C243.339 26.5005 244.376 26.7758 245.425 26.7366C246.376 26.7734 247.321 26.5646 248.169 26.1304C249.016 25.6962 249.739 25.0512 250.266 24.257C251.611 21.8254 252.21 19.0502 251.988 16.2791C251.999 14.9052 251.879 13.5333 251.629 12.1823C251.429 11.025 251.041 9.90821 250.481 8.87616C250.01 7.97586 249.319 7.20944 248.473 6.64806C247.553 6.09751 246.495 5.82316 245.425 5.8575C244.463 5.81476 243.507 6.02434 242.652 6.46557C241.796 6.9068 241.071 7.56435 240.547 8.37305C239.229 10.7888 238.632 13.5329 238.825 16.2791Z" fill="#E52038"/>
<path d="M261.456 16.2791C261.187 12.1444 262.353 8.04384 264.756 4.67159C265.914 3.29957 267.377 2.21788 269.027 1.51283C270.678 0.807785 272.469 0.498872 274.26 0.610744C276.196 0.562538 278.118 0.942916 279.891 1.72477C281.466 2.43652 282.836 3.53692 283.872 4.92312C284.998 6.39238 285.804 8.08177 286.239 9.88238C286.792 11.9684 287.058 14.1207 287.028 16.2791C287.294 20.4301 286.116 24.5452 283.692 27.9225C282.537 29.2802 281.085 30.3528 279.449 31.0571C277.814 31.7613 276.038 32.0783 274.26 31.9833C272.3 32.035 270.354 31.6547 268.557 30.8693C266.982 30.1576 265.612 29.0571 264.576 27.6709C263.476 26.1907 262.683 24.5043 262.245 22.7117C261.689 20.6138 261.424 18.4494 261.456 16.2791ZM267.661 16.2791C267.654 17.6902 267.787 19.0984 268.055 20.4836C268.256 21.646 268.656 22.7646 269.239 23.7898C269.726 24.6709 270.43 25.413 271.283 25.946C272.175 26.5005 273.211 26.7758 274.26 26.7366C275.211 26.7734 276.156 26.5646 277.004 26.1304C277.852 25.6962 278.574 25.0512 279.102 24.257C280.446 21.8254 281.045 19.0502 280.823 16.2791C280.834 14.9052 280.714 13.5333 280.464 12.1823C280.264 11.025 279.876 9.90821 279.317 8.87616C278.845 7.97586 278.154 7.20944 277.308 6.64806C276.389 6.09751 275.33 5.82316 274.26 5.8575C273.298 5.81476 272.343 6.02434 271.487 6.46557C270.632 6.9068 269.906 7.56435 269.382 8.37305C268.065 10.7888 267.467 13.5329 267.661 16.2791Z" fill="#E52038"/>
<path d="M297.141 6.46871V31.3727H291.224V1.18604H297.141M310.053 1.18604V31.3727H304.135V1.18604M317.226 1.18604H323.144V31.3727H317.226V1.18604Z" fill="#E52038"/>
<path d="M15.673 31.4085C24.329 31.4085 31.346 24.3775 31.346 15.7043C31.346 7.03104 24.329 0 15.673 0C7.01705 0 0 7.03104 0 15.7043C0 24.3775 7.01705 31.4085 15.673 31.4085Z" fill="#E52038"/>
</svg>
