<svg width="33" height="32" viewBox="0 0 33 32" fill="none" xmlns="http://www.w3.org/2000/svg">
<path d="M16.5 32C25.6127 32 33 24.8366 33 16C33 7.16344 25.6127 0 16.5 0C7.3873 0 0 7.16344 0 16C0 24.8366 7.3873 32 16.5 32Z" fill="#E52038"/>
<path d="M16.5002 7.73912C19.2747 7.73912 19.6022 7.75097 20.6973 7.79838C21.3567 7.80614 22.0098 7.92319 22.6285 8.14445C23.0783 8.30785 23.4855 8.56519 23.8213 8.89823C24.1664 9.2235 24.432 9.61956 24.5987 10.0573C24.8279 10.6561 24.9486 11.2889 24.9556 11.9276C25.0069 12.9895 25.0167 13.3095 25.0167 15.9999C25.0167 18.6902 25.0167 19.0079 24.9556 20.0698C24.9486 20.7085 24.8279 21.3412 24.5987 21.94C24.4259 22.3744 24.1614 22.769 23.8221 23.0984C23.4828 23.4278 23.0762 23.6848 22.6285 23.8529C22.0098 24.0742 21.3567 24.1912 20.6973 24.199C19.6022 24.2464 19.2747 24.2582 16.5002 24.2582C13.7258 24.2582 13.3982 24.2464 12.3031 24.199C11.6438 24.1912 10.9907 24.0742 10.372 23.8529C9.92425 23.6848 9.51767 23.4278 9.17837 23.0984C8.83908 22.769 8.57455 22.3744 8.40179 21.94C8.17257 21.3412 8.05182 20.7085 8.04489 20.0698C7.99356 19.0079 7.98378 18.6879 7.98378 15.9999C7.98378 13.3119 7.98378 12.9895 8.04489 11.9276C8.05182 11.2889 8.17257 10.6561 8.40179 10.0573C8.56844 9.61956 8.83405 9.2235 9.17912 8.89823C9.51494 8.56519 9.92219 8.30785 10.372 8.14445C10.9907 7.92319 11.6438 7.80614 12.3031 7.79838C13.3982 7.75097 13.7258 7.73912 16.5002 7.73912ZM16.5002 5.92578C13.6793 5.92578 13.3225 5.92578 12.2176 5.98504C11.3551 6.00385 10.5022 6.16414 9.69489 6.45911C9.0045 6.71753 8.37752 7.11317 7.85423 7.62059C7.33095 8.12802 6.92294 8.73602 6.65645 9.40549C6.35134 10.1872 6.186 11.0137 6.16756 11.8493C6.11623 12.9255 6.104 13.2716 6.104 16.0046C6.104 18.7376 6.10401 19.0861 6.16756 20.1575C6.18639 20.9939 6.35171 21.8211 6.65645 22.6037C6.92349 23.2726 7.33171 23.88 7.85495 24.387C8.37819 24.8939 9.00489 25.2893 9.69489 25.5477C10.5018 25.8438 11.355 26.0042 12.2176 26.0218C13.3249 26.0716 13.6842 26.0834 16.5002 26.0834C19.3162 26.0834 19.678 26.0716 20.7829 26.0218C21.6455 26.0042 22.4986 25.8438 23.3056 25.5477C23.9956 25.2893 24.6223 24.8939 25.1455 24.387C25.6688 23.88 26.077 23.2726 26.344 22.6037C26.6488 21.8211 26.8141 20.9939 26.8329 20.1575C26.8842 19.0837 26.8965 18.7353 26.8965 16.0046C26.8965 13.2739 26.8965 12.9231 26.8329 11.8493C26.8145 11.0137 26.6491 10.1872 26.344 9.40549C26.0775 8.73602 25.6695 8.12802 25.1462 7.62059C24.6229 7.11317 23.996 6.71753 23.3056 6.45911C22.4983 6.16414 21.6454 6.00385 20.7829 5.98504C19.6756 5.93526 19.3162 5.92578 16.5002 5.92578Z" fill="white"/>
<path d="M16.4998 10.8257C15.4443 10.8252 14.4124 11.1283 13.5345 11.6966C12.6566 12.2649 11.9723 13.0729 11.568 14.0184C11.1638 14.9638 11.0577 16.0043 11.2634 17.0083C11.469 18.0122 11.977 18.9344 12.7232 19.6583C13.4694 20.3822 14.4202 20.8753 15.4554 21.0751C16.4906 21.275 17.5637 21.1726 18.5389 20.7811C19.5141 20.3895 20.3476 19.7263 20.9341 18.8753C21.5205 18.0243 21.8336 17.0237 21.8336 16.0002C21.8339 15.3208 21.6962 14.648 21.4283 14.0202C21.1604 13.3924 20.7675 12.8219 20.2722 12.3414C19.7769 11.8609 19.1888 11.4797 18.5415 11.2196C17.8942 10.9595 17.2004 10.8257 16.4998 10.8257ZM16.4998 19.359C15.8146 19.359 15.1448 19.162 14.5752 18.7928C14.0055 18.4236 13.5615 17.8989 13.2994 17.285C13.0374 16.6711 12.9689 15.9957 13.1028 15.3441C13.2366 14.6924 13.5667 14.094 14.0514 13.6243C14.5361 13.1547 15.1535 12.835 15.8255 12.7056C16.4976 12.5763 17.1941 12.6432 17.827 12.8977C18.4599 13.1523 19.0007 13.5832 19.381 14.1359C19.7613 14.6885 19.9641 15.3382 19.9636 16.0026C19.9623 16.8926 19.5968 17.7457 18.9473 18.3745C18.2979 19.0034 17.4176 19.3566 16.4998 19.3566V19.359Z" fill="white"/>
<path d="M22.0465 11.8304C22.735 11.8304 23.2931 11.2891 23.2931 10.6215C23.2931 9.95384 22.735 9.4126 22.0465 9.4126C21.358 9.4126 20.7998 9.95384 20.7998 10.6215C20.7998 11.2891 21.358 11.8304 22.0465 11.8304Z" fill="white"/>
</svg>
