<svg width="32" height="32" viewBox="0 0 32 32" fill="none" xmlns="http://www.w3.org/2000/svg">
<path d="M16 32C24.8366 32 32 24.8366 32 16C32 7.16344 24.8366 0 16 0C7.16344 0 0 7.16344 0 16C0 24.8366 7.16344 32 16 32Z" fill="#E52038"/>
<path d="M26.2209 10.8659C26.0994 10.4111 25.8601 9.99629 25.5272 9.66338C25.1943 9.33046 24.7795 9.09117 24.3246 8.96963C22.6701 8.54297 15.9999 8.54297 15.9999 8.54297C15.9999 8.54297 9.32966 8.54297 7.66566 8.9886C7.2108 9.11014 6.79601 9.34942 6.4631 9.68233C6.13018 10.0153 5.8909 10.43 5.76936 10.8849C5.32373 12.5442 5.32373 16.0191 5.32373 16.0191C5.32373 16.0191 5.32373 19.4917 5.76936 21.1557C5.89206 21.6087 6.13192 22.0214 6.46482 22.3522C6.79772 22.683 7.2119 22.9203 7.66566 23.0402C9.32966 23.4763 15.9999 23.4763 15.9999 23.4763C15.9999 23.4763 22.6701 23.4763 24.3341 23.0307C24.7878 22.9108 25.202 22.6735 25.5349 22.3427C25.8678 22.0119 26.1077 21.5992 26.2304 21.1462C26.676 19.487 26.676 16.0096 26.676 16.0096C26.676 16.0096 26.6665 12.5299 26.2209 10.8659ZM13.8665 19.2096V12.8096L19.4085 16.0096L13.8665 19.2096Z" fill="white"/>
</svg>
