<svg width="28" height="36" viewBox="0 0 28 36" fill="none" xmlns="http://www.w3.org/2000/svg">
<path d="M26.1187 35.1298H0.978653C0.899022 35.1311 0.819925 35.1166 0.745972 35.0871C0.672018 35.0575 0.604691 35.0135 0.547913 34.9577C0.491134 34.9018 0.446044 34.8352 0.415268 34.7618C0.384492 34.6883 0.368641 34.6095 0.368652 34.5298V17.3598C0.368652 17.198 0.43292 17.0429 0.547318 16.9285C0.661715 16.8141 0.816871 16.7498 0.978653 16.7498C1.14043 16.7498 1.29559 16.8141 1.40999 16.9285C1.52439 17.0429 1.58865 17.198 1.58865 17.3598V33.9198H25.4987V17.3598C25.4876 17.2738 25.495 17.1865 25.5203 17.1036C25.5456 17.0207 25.5884 16.9441 25.6456 16.879C25.7028 16.8139 25.7733 16.7618 25.8523 16.7261C25.9313 16.6904 26.017 16.6719 26.1037 16.6719C26.1903 16.6719 26.276 16.6904 26.355 16.7261C26.434 16.7618 26.5045 16.8139 26.5617 16.879C26.619 16.9441 26.6617 17.0207 26.687 17.1036C26.7124 17.1865 26.7197 17.2738 26.7087 17.3598V34.5298C26.7087 34.6872 26.6468 34.8383 26.5365 34.9506C26.4261 35.0628 26.276 35.1272 26.1187 35.1298Z" fill="#E52038" stroke="#E52038" stroke-width="0.7" stroke-miterlimit="10"/>
<path d="M26.1182 35.1299C25.9973 35.1321 25.8786 35.0972 25.7782 35.0298L13.5482 26.6698L1.31819 35.0199C1.18558 35.11 1.02258 35.1438 0.865052 35.1138C0.707522 35.0838 0.568355 34.9925 0.478181 34.8598C0.388008 34.7272 0.354212 34.5642 0.384217 34.4067C0.414223 34.2492 0.505577 34.11 0.638185 34.0199L13.2082 25.4298C13.3082 25.361 13.4268 25.3242 13.5482 25.3242C13.6696 25.3242 13.7881 25.361 13.8882 25.4298L26.4982 34.0298C26.5643 34.0741 26.621 34.131 26.665 34.1974C26.7089 34.2637 26.7392 34.3382 26.7541 34.4163C26.769 34.4945 26.7682 34.5749 26.7517 34.6527C26.7352 34.7306 26.7034 34.8044 26.6582 34.8698C26.5982 34.956 26.5169 35.0252 26.4223 35.0707C26.3277 35.1163 26.223 35.1367 26.1182 35.1299Z" fill="#E52038" stroke="#E52038" stroke-width="0.7" stroke-miterlimit="10"/>
<path d="M26.1188 17.9598C26.0059 17.9595 25.8952 17.9284 25.7988 17.8698L22.7188 15.9698C22.6319 15.9394 22.5531 15.8897 22.4881 15.8244C22.4232 15.7592 22.3739 15.6801 22.3439 15.5931C22.3139 15.5061 22.3039 15.4134 22.3148 15.322C22.3257 15.2306 22.3571 15.1429 22.4068 15.0654C22.4564 14.9878 22.5229 14.9225 22.6013 14.8744C22.6797 14.8262 22.7681 14.7964 22.8596 14.7872C22.9512 14.778 23.0437 14.7897 23.1301 14.8213C23.2166 14.8529 23.2947 14.9037 23.3588 14.9698L26.4388 16.8698C26.555 16.9366 26.6456 17.0403 26.696 17.1645C26.7464 17.2887 26.7538 17.4262 26.717 17.555C26.6802 17.6839 26.6013 17.7968 26.4928 17.8756C26.3844 17.9544 26.2527 17.9946 26.1188 17.9898V17.9598Z" fill="#E52038" stroke="#E52038" stroke-width="0.7" stroke-miterlimit="10"/>
<path d="M0.979233 17.9598C0.845279 17.9645 0.713591 17.9243 0.605164 17.8455C0.496737 17.7667 0.41782 17.6539 0.380997 17.525C0.344174 17.3961 0.351564 17.2586 0.401993 17.1344C0.452422 17.0102 0.54299 16.9065 0.659241 16.8398L3.73924 14.9398C3.8759 14.8539 4.04104 14.8256 4.19849 14.8612C4.35594 14.8968 4.49286 14.9934 4.57924 15.1298C4.66164 15.2683 4.68684 15.4335 4.64951 15.5903C4.61217 15.7471 4.51523 15.8832 4.37924 15.9698L1.29924 17.8698C1.20275 17.9283 1.0921 17.9595 0.979233 17.9598Z" fill="#E52038" stroke="#E52038" stroke-width="0.7" stroke-miterlimit="10"/>
<path d="M13.5482 26.5495C13.4263 26.5483 13.3077 26.5099 13.2082 26.4395L0.638185 17.8595C0.505577 17.7694 0.414223 17.6302 0.384217 17.4727C0.354212 17.3151 0.388008 17.1521 0.478181 17.0195C0.568355 16.8869 0.707522 16.7956 0.865052 16.7656C1.02258 16.7356 1.18558 16.7694 1.31819 16.8595L13.5482 25.2095L25.7782 16.8595C25.9108 16.7694 26.0738 16.7356 26.2313 16.7656C26.3889 16.7956 26.528 16.8869 26.6182 17.0195C26.7084 17.1521 26.7422 17.3151 26.7122 17.4727C26.6822 17.6302 26.5908 17.7694 26.4582 17.8595L13.8882 26.4395C13.7887 26.5099 13.6701 26.5483 13.5482 26.5495Z" fill="#E52038" stroke="#E52038" stroke-width="0.7" stroke-miterlimit="10"/>
<path d="M4.05857 20.0696C3.97893 20.0696 3.90009 20.0538 3.82664 20.023C3.75318 19.9922 3.68658 19.9471 3.63073 19.8904C3.57488 19.8336 3.53091 19.7663 3.50135 19.6923C3.47179 19.6183 3.45725 19.5392 3.45858 19.4596V1.95961C3.45725 1.87998 3.47179 1.80088 3.50135 1.72693C3.53091 1.65298 3.57488 1.58564 3.63073 1.52886C3.68658 1.47208 3.75318 1.42699 3.82664 1.39622C3.90009 1.36544 3.97893 1.3496 4.05857 1.34961H18.8986C19.0594 1.35342 19.213 1.41769 19.3286 1.52961L23.4986 5.66961C23.6122 5.78407 23.6768 5.93832 23.6786 6.09961V19.4596C23.6786 19.6214 23.6143 19.7765 23.4999 19.8909C23.3855 20.0053 23.2304 20.0696 23.0686 20.0696C22.9885 20.0696 22.9091 20.0538 22.8351 20.0232C22.7611 19.9925 22.6939 19.9476 22.6372 19.8909C22.5806 19.8343 22.5357 19.7671 22.505 19.693C22.4744 19.619 22.4586 19.5397 22.4586 19.4596V6.34961L18.6786 2.55961H4.67857V19.4596C4.67858 19.5406 4.66248 19.6207 4.6312 19.6954C4.59992 19.7701 4.5541 19.8377 4.49639 19.8945C4.43868 19.9513 4.37025 19.996 4.29508 20.0261C4.21991 20.0561 4.13951 20.0709 4.05857 20.0696Z" fill="#E52038" stroke="#E52038" stroke-width="0.7" stroke-miterlimit="10"/>
<path d="M23.0386 6.66977H18.8986C18.8189 6.67109 18.7398 6.65656 18.6659 6.627C18.5919 6.59744 18.5246 6.55346 18.4678 6.49761C18.4111 6.44176 18.366 6.37516 18.3352 6.30171C18.3044 6.22826 18.2886 6.14941 18.2886 6.06977V1.92977C18.2882 1.80903 18.3243 1.69099 18.3921 1.59108C18.4599 1.49117 18.5563 1.41404 18.6686 1.36976C18.779 1.32301 18.9009 1.31041 19.0185 1.33358C19.1362 1.35675 19.2442 1.41464 19.3286 1.49977L23.4986 5.66977C23.5815 5.7556 23.6378 5.86353 23.6609 5.9806C23.6839 6.09767 23.6727 6.21891 23.6286 6.32977C23.5763 6.43956 23.4919 6.53086 23.3865 6.59157C23.2811 6.65229 23.1598 6.67956 23.0386 6.66977ZM19.4986 5.48977H21.5786L19.4986 3.41977V5.48977Z" fill="#E52038" stroke="#E52038" stroke-width="0.7" stroke-miterlimit="10"/>
<path d="M19.4987 18.2598H7.62874C7.48167 18.2409 7.34654 18.169 7.24861 18.0576C7.15069 17.9463 7.09668 17.8031 7.09668 17.6548C7.09668 17.5065 7.15069 17.3633 7.24861 17.252C7.34654 17.1406 7.48167 17.0688 7.62874 17.0498H19.4987C19.6458 17.0688 19.7809 17.1406 19.8789 17.252C19.9768 17.3633 20.0308 17.5065 20.0308 17.6548C20.0308 17.8031 19.9768 17.9463 19.8789 18.0576C19.7809 18.169 19.6458 18.2409 19.4987 18.2598Z" fill="#E52038" stroke="#E52038" stroke-width="0.7" stroke-miterlimit="10"/>
<path d="M19.4989 14.22H7.6289C7.46886 14.2174 7.31625 14.1519 7.204 14.0378C7.09176 13.9237 7.02887 13.7701 7.02889 13.61C7.02756 13.5304 7.0421 13.4513 7.07166 13.3773C7.10122 13.3034 7.14521 13.236 7.20106 13.1793C7.2569 13.1225 7.32349 13.0774 7.39695 13.0466C7.4704 13.0158 7.54926 13 7.6289 13H19.4989C19.5785 13 19.6574 13.0158 19.7308 13.0466C19.8043 13.0774 19.8709 13.1225 19.9267 13.1793C19.9826 13.236 20.0266 13.3034 20.0561 13.3773C20.0857 13.4513 20.1002 13.5304 20.0989 13.61C20.0989 13.7701 20.036 13.9237 19.9238 14.0378C19.8115 14.1519 19.6589 14.2174 19.4989 14.22Z" fill="#E52038" stroke="#E52038" stroke-width="0.7" stroke-miterlimit="10"/>
<path d="M19.4987 10.17H7.62874C7.48167 10.151 7.34654 10.0791 7.24861 9.9678C7.15069 9.85645 7.09668 9.71324 7.09668 9.56496C7.09668 9.41667 7.15069 9.27347 7.24861 9.16212C7.34654 9.05078 7.48167 8.97891 7.62874 8.95996H19.4987C19.6458 8.97891 19.7809 9.05078 19.8789 9.16212C19.9768 9.27347 20.0308 9.41667 20.0308 9.56496C20.0308 9.71324 19.9768 9.85645 19.8789 9.9678C19.7809 10.0791 19.6458 10.151 19.4987 10.17Z" fill="#E52038" stroke="#E52038" stroke-width="0.7" stroke-miterlimit="10"/>
</svg>
