<svg width="32" height="32" viewBox="0 0 32 32" fill="none" xmlns="http://www.w3.org/2000/svg">
<path d="M32 16.0006C31.9999 12.9424 31.1234 9.94838 29.4743 7.37298C27.8252 4.79758 25.4726 2.74873 22.6951 1.46908C19.9175 0.18943 16.8314 -0.267418 13.8023 0.152643C10.7731 0.572704 7.92779 1.85207 5.60327 3.83924C3.27875 5.82641 1.57241 8.43813 0.686331 11.3651C-0.199746 14.2921 -0.228441 17.4116 0.603645 20.3544C1.43573 23.2972 3.09374 25.9398 5.38131 27.9694C7.66889 29.999 10.4902 31.3305 13.5111 31.8062V20.6347H9.44118V16.0006H13.504V12.4735C13.504 8.46518 15.8933 6.24888 19.5484 6.24888C20.7484 6.26567 21.9454 6.37025 23.1301 6.56178V10.499H21.1129C19.1241 10.499 18.5055 11.7339 18.5055 12.9973V16.0006H22.9428L22.2317 20.6252H18.5007V31.8062C22.2639 31.2098 25.6909 29.2903 28.1654 26.393C30.6399 23.4958 31.9996 19.8108 32 16.0006V16.0006Z" fill="#E52038"/>
</svg>
