<svg width="69" height="62" viewBox="0 0 69 62" fill="none" xmlns="http://www.w3.org/2000/svg">
<g clip-path="url(#clip0_1_483)">
<path d="M6.8999 34.7015V25.4478H52.8999V60.6119H6.8999V45.806" stroke="white" stroke-width="1.5" stroke-linecap="round" stroke-linejoin="round"/>
<path d="M38.1799 36.5522V43.9552" stroke="white" stroke-width="1.5" stroke-linecap="round" stroke-linejoin="round"/>
<path d="M43.7 36.5522V43.9552" stroke="white" stroke-width="1.5" stroke-linecap="round" stroke-linejoin="round"/>
<path d="M27.1399 34.7015H1.37988V45.806H27.1399V34.7015Z" stroke="white" stroke-width="1.5" stroke-linecap="round" stroke-linejoin="round"/>
<path d="M52.8999 36.5523L67.6199 27.2985V56.9105L52.8999 49.5075" stroke="white" stroke-width="1.5" stroke-linecap="round" stroke-linejoin="round"/>
<path d="M6.8999 52.228H51.0599" stroke="white" stroke-width="1.5" stroke-linecap="round" stroke-linejoin="round"/>
<path d="M17.94 25.4478C23.021 25.4478 27.14 21.3047 27.14 16.194C27.14 11.0833 23.021 6.94031 17.94 6.94031C12.859 6.94031 8.73999 11.0833 8.73999 16.194C8.73999 21.3047 12.859 25.4478 17.94 25.4478Z" stroke="white" stroke-width="1.5" stroke-linecap="round" stroke-linejoin="round"/>
<path d="M21.62 16.194C21.62 17.1757 21.2323 18.1172 20.5422 18.8114C19.852 19.5055 18.916 19.8955 17.94 19.8955C16.964 19.8955 16.028 19.5055 15.3379 18.8114C14.6477 18.1172 14.26 17.1757 14.26 16.194" stroke="white" stroke-width="1.5" stroke-linecap="round" stroke-linejoin="round"/>
<path d="M42.7801 25.4478C49.3854 25.4478 54.7401 20.0618 54.7401 13.4179C54.7401 6.77401 49.3854 1.38806 42.7801 1.38806C36.1747 1.38806 30.8201 6.77401 30.8201 13.4179C30.8201 20.0618 36.1747 25.4478 42.7801 25.4478Z" stroke="white" stroke-width="1.5" stroke-linecap="round" stroke-linejoin="round"/>
<path d="M49.2201 13.4179C49.2201 15.1359 48.5416 16.7835 47.3339 17.9983C46.1261 19.2131 44.4881 19.8955 42.7801 19.8955C41.0721 19.8955 39.4341 19.2131 38.2263 17.9983C37.0186 16.7835 36.3401 15.1359 36.3401 13.4179" stroke="white" stroke-width="1.5" stroke-linecap="round" stroke-linejoin="round"/>
</g>
<defs>
<clipPath id="clip0_1_483">
<rect width="69" height="62" fill="white"/>
</clipPath>
</defs>
</svg>
