<svg width="33" height="24" viewBox="0 0 33 24" fill="none" xmlns="http://www.w3.org/2000/svg">
<path d="M27.8362 0.611328H5.78983C4.46096 0.611328 3.1865 1.13311 2.24685 2.0619C1.30719 2.99069 0.779297 4.25039 0.779297 5.56389V18.4406C0.779297 19.7541 1.30719 21.0138 2.24685 21.9426C3.1865 22.8713 4.46096 23.3931 5.78983 23.3931H27.8362C29.1651 23.3931 30.4395 22.8713 31.3792 21.9426C32.3188 21.0138 32.8467 19.7541 32.8467 18.4406V5.56389C32.8467 4.25039 32.3188 2.99069 31.3792 2.0619C30.4395 1.13311 29.1651 0.611328 27.8362 0.611328ZM5.78983 2.59235H27.8362C28.2068 2.59515 28.5738 2.66567 28.9185 2.80036L16.5525 13.1413L4.37686 2.95884C4.80909 2.72097 5.29513 2.59491 5.78983 2.59235ZM2.78351 18.4406V5.56389C2.78245 5.16957 2.8608 4.77899 3.014 4.4149L11.4417 11.4574L3.08415 19.7183C2.88888 19.3199 2.78617 18.8833 2.78351 18.4406ZM27.8362 21.4121H5.78983C5.34191 21.4095 4.90024 21.308 4.49711 21.1149L12.9749 12.7451L15.9111 15.1917C16.09 15.3429 16.3171 15.4271 16.5525 15.4294C16.7913 15.4294 17.0223 15.3451 17.2038 15.1917L20.4206 12.5074L29.2291 21.0555C28.8009 21.2841 28.3229 21.4064 27.8362 21.4121ZM30.8425 18.4406C30.8412 18.842 30.7595 19.2393 30.602 19.6094L21.9538 11.2197L30.2312 4.28613C30.3023 4.21933 30.3631 4.14257 30.4116 4.05831C30.6921 4.50802 30.8413 5.02568 30.8425 5.55399V18.4406Z" fill="#E52038"/>
</svg>
