<svg width="32" height="38" viewBox="0 0 32 38" fill="none" xmlns="http://www.w3.org/2000/svg">
<path d="M12.7406 22.4939C12.9066 22.6631 13.1063 22.7977 13.3274 22.8898C13.5486 22.9818 13.7867 23.0292 14.0273 23.0292C14.2679 23.0292 14.506 22.9818 14.7271 22.8898C14.9483 22.7977 15.1479 22.6631 15.3139 22.4939L23.2162 14.4331C23.5371 14.1007 23.7098 13.6584 23.6965 13.2027C23.6833 12.7471 23.4852 12.315 23.1454 12.0006C22.8057 11.6863 22.3518 11.5152 21.8827 11.5246C21.4137 11.534 20.9674 11.7232 20.6413 12.0509L14.028 18.7989L11.3614 16.0813C11.0352 15.7536 10.589 15.5644 10.12 15.5549C9.65092 15.5455 9.19703 15.7166 8.85727 16.031C8.51751 16.3453 8.31942 16.7774 8.30617 17.2331C8.29292 17.6887 8.46558 18.131 8.78653 18.4635L12.7406 22.4939Z" fill="#121212"/>
<path d="M30.2222 0H1.77778C1.30628 0 0.854098 0.181981 0.5207 0.505913C0.187302 0.829844 0 1.26919 0 1.7273V22.4549C0 26.2046 2.64 29.9629 7.85185 33.6248C10.188 35.2533 12.6748 36.6676 15.28 37.8494C15.5084 37.9487 15.7557 38 16.0059 38C16.2561 38 16.5035 37.9487 16.7319 37.8494C19.3331 36.6672 21.8159 35.2529 24.1481 33.6248C29.3556 29.9629 32 26.2046 32 22.4549V1.7273C32 1.26919 31.8127 0.829844 31.4793 0.505913C31.1459 0.181981 30.6937 0 30.2222 0ZM28.4444 22.4549C28.4444 25.6561 25.0015 28.7566 22.1141 30.7949C20.1782 32.141 18.1335 33.3329 16 34.3589C13.8665 33.3329 11.8218 32.141 9.88593 30.7949C6.99852 28.7566 3.55556 25.6561 3.55556 22.4549V3.4546H28.4444V22.4549Z" fill="#121212"/>
</svg>
