<svg width="24" height="35" viewBox="0 0 24 35" fill="none" xmlns="http://www.w3.org/2000/svg">
<path d="M22.4348 0H1.56522C1.1501 0 0.751978 0.16761 0.458442 0.465961C0.164907 0.764311 3.40673e-08 1.16896 3.40673e-08 1.59089V33.4088C-6.14853e-05 33.7085 0.0831972 34.0022 0.240183 34.256C0.397168 34.5097 0.621493 34.7132 0.887311 34.843C1.15313 34.9729 1.44963 35.0237 1.74264 34.9897C2.03565 34.9558 2.31326 34.8383 2.54348 34.651L12 26.9617L21.4565 34.651C21.6867 34.8383 21.9643 34.9558 22.2574 34.9897C22.5504 35.0237 22.8469 34.9729 23.1127 34.843C23.3785 34.7132 23.6028 34.5097 23.7598 34.256C23.9168 34.0022 24.0001 33.7085 24 33.4088V1.59089C24 1.16896 23.8351 0.764311 23.5416 0.465961C23.248 0.16761 22.8499 0 22.4348 0ZM20.8696 30.0944L12.9783 23.6778C12.7007 23.4519 12.3556 23.3288 12 23.3288C11.6444 23.3288 11.2993 23.4519 11.0217 23.6778L3.13043 30.0984V3.18576H20.8696V30.0944Z" fill="#121212"/>
</svg>
