<svg width="39" height="21" viewBox="0 0 39 21" fill="none" xmlns="http://www.w3.org/2000/svg">
<path d="M38.4816 18.0135L20.7556 0.514682C20.5909 0.351546 20.3952 0.222106 20.1798 0.133786C19.9643 0.0454657 19.7333 0 19.5 0C19.2667 0 19.0357 0.0454657 18.8202 0.133786C18.6048 0.222106 18.4091 0.351546 18.2444 0.514682L0.518409 18.0135C0.270464 18.2586 0.101769 18.5708 0.0336891 18.9106C-0.0343903 19.2504 0.00120862 19.6024 0.135977 19.9222C0.270745 20.242 0.498622 20.5152 0.790744 20.707C1.08287 20.8989 1.42609 21.0008 1.77696 21H37.229C37.5793 20.9997 37.9217 20.8969 38.2129 20.7046C38.5042 20.5123 38.7311 20.2391 38.8652 19.9195C38.9992 19.6 39.0343 19.2484 38.966 18.9091C38.8978 18.5699 38.7292 18.2582 38.4816 18.0135ZM6.06074 17.5002L19.503 4.23027L32.9452 17.5002H6.06074Z" fill="#121212"/>
</svg>
