<svg width="36" height="37" viewBox="0 0 36 37" fill="none" xmlns="http://www.w3.org/2000/svg">
<path d="M35.4706 19.064L30.0318 13.6542C29.8646 13.4873 29.6659 13.3549 29.4471 13.2645C29.2283 13.1741 28.9938 13.1276 28.7569 13.1276C28.52 13.1276 28.2854 13.1741 28.0666 13.2645C27.8478 13.3549 27.6491 13.4873 27.4819 13.6542L26.399 14.7344V1.79032C26.399 1.3155 26.2093 0.860123 25.8718 0.524372C25.5342 0.188621 25.0764 0 24.599 0H1.79993C1.32256 0 0.86474 0.188621 0.527188 0.524372C0.189636 0.860123 0 1.3155 0 1.79032V30.4355C0 30.9103 0.189636 31.3657 0.527188 31.7014C0.86474 32.0372 1.32256 32.2258 1.79993 32.2258H11.9995V35.2097C11.9995 35.6845 12.1892 36.1399 12.5267 36.4756C12.8643 36.8114 13.3221 37 13.7995 37H19.2397C19.7169 36.9996 20.1745 36.8107 20.5117 36.4748L35.4706 21.5958C35.6384 21.4294 35.7715 21.2318 35.8624 21.0142C35.9532 20.7966 36 20.5633 36 20.3276C36 20.092 35.9532 19.8587 35.8624 19.6411C35.7715 19.4234 35.6384 19.2258 35.4706 19.0595V19.064ZM3.59986 3.58065H22.7991V18.315L12.5275 28.5333C12.4911 28.5687 12.4565 28.6061 12.424 28.6452H3.59986V3.58065ZM18.4943 33.4194H15.5994V30.5399L28.7584 17.4512L31.6533 20.3306L18.4943 33.4194Z" fill="#121212"/>
</svg>
