<svg width="39" height="38" viewBox="0 0 39 38" fill="none" xmlns="http://www.w3.org/2000/svg">
<path d="M31.4614 19.0029L38.4773 12.1644C38.6425 12.004 38.7736 11.8133 38.863 11.6034C38.9525 11.3935 38.9985 11.1685 38.9985 10.9412C38.9985 10.7139 38.9525 10.4889 38.863 10.279C38.7736 10.0691 38.6425 9.87841 38.4773 9.71798L29.0263 0.507913C28.8617 0.346922 28.6661 0.219183 28.4507 0.132023C28.2353 0.0448638 28.0043 0 27.7711 0C27.5379 0 27.3069 0.0448638 27.0915 0.132023C26.8761 0.219183 26.6805 0.346922 26.5159 0.507913L19.5 7.35071L12.4826 0.512231C12.318 0.351239 12.1224 0.2235 11.907 0.13634C11.6916 0.0491808 11.4606 0.00431704 11.2274 0.00431704C10.9942 0.00431704 10.7633 0.0491808 10.5479 0.13634C10.3325 0.2235 10.1368 0.351239 9.97221 0.512231L0.521203 9.7223C0.355999 9.88273 0.224919 10.0734 0.135479 10.2833C0.0460397 10.4932 0 10.7182 0 10.9455C0 11.1728 0.0460397 11.3978 0.135479 11.6077C0.224919 11.8177 0.355999 12.0083 0.521203 12.1687L7.53857 19.0029L0.527111 25.8399C0.362336 26.0003 0.231614 26.1907 0.142422 26.4004C0.0532296 26.61 0.00731604 26.8347 0.00730518 27.0617V36.2718C0.00730518 36.7298 0.194005 37.169 0.526331 37.4928C0.858658 37.8167 1.30939 37.9986 1.77937 37.9986H11.2304C11.7002 37.9982 12.1506 37.816 12.4826 37.4921L19.5 30.655L26.5174 37.4921C26.682 37.6531 26.8776 37.7808 27.093 37.868C27.3084 37.9551 27.5394 38 27.7726 38C28.0058 38 28.2367 37.9551 28.4521 37.868C28.6675 37.7808 28.8632 37.6531 29.0278 37.4921L38.4788 28.282C38.644 28.1216 38.7751 27.9309 38.8645 27.721C38.954 27.5111 39 27.2861 39 27.0588C39 26.8315 38.954 26.6065 38.8645 26.3966C38.7751 26.1867 38.644 25.996 38.4788 25.8356L31.4614 19.0029ZM27.7696 4.18043L34.7102 10.9441L28.951 16.5565L22.0104 9.79281L27.7696 4.18043ZM4.28979 10.9441L11.2304 4.18043L16.9896 9.79281L10.049 16.5565L4.28979 10.9441ZM10.5009 34.5449H3.55143V27.7812L19.5 12.2349L21.7151 14.3935L7.7527 28C7.58786 28.1606 7.4571 28.3513 7.3679 28.5612C7.27869 28.7711 7.23277 28.996 7.23277 29.2232C7.23277 29.4503 7.27869 29.6753 7.3679 29.8852C7.4571 30.095 7.58786 30.2857 7.7527 30.4464C7.91753 30.607 8.11322 30.7344 8.32859 30.8214C8.54396 30.9083 8.77479 30.9531 9.00791 30.9531C9.24102 30.9531 9.47186 30.9083 9.68723 30.8214C9.9026 30.7344 10.0983 30.607 10.2631 30.4464L24.2255 16.8399L26.4406 18.9986L10.5009 34.5449ZM27.7785 33.8253L22.0193 28.2129L28.9599 21.4493L34.7191 27.0617L27.7785 33.8253Z" fill="#121212"/>
</svg>
