<svg width="27" height="37" viewBox="0 0 27 37" fill="none" xmlns="http://www.w3.org/2000/svg">
<path d="M9.46161 8.43105L11.739 6.11743V24.4653C11.739 24.94 11.9245 25.3953 12.2547 25.731C12.585 26.0667 13.0329 26.2553 13.4999 26.2553C13.9669 26.2553 14.4148 26.0667 14.745 25.731C15.0752 25.3953 15.2607 24.94 15.2607 24.4653V6.11743L17.5381 8.43105C17.8689 8.76733 18.3176 8.95625 18.7854 8.95625C19.2532 8.95625 19.7019 8.76733 20.0327 8.43105C20.3635 8.09478 20.5493 7.63868 20.5493 7.16311C20.5493 6.68754 20.3635 6.23145 20.0327 5.89517L14.7501 0.525075C14.709 0.482571 14.6654 0.442717 14.6195 0.405741C14.6004 0.389332 14.5799 0.375907 14.5593 0.359499C14.5388 0.34309 14.508 0.319221 14.4816 0.301321C14.4551 0.28342 14.4317 0.269995 14.4067 0.255078L14.3333 0.210329L14.1778 0.135745L14.1015 0.107402C14.0722 0.0969603 14.0443 0.0850249 14.0149 0.0775665C13.9856 0.070108 13.9636 0.0641436 13.9386 0.0566851C13.9137 0.0492266 13.8785 0.0402728 13.8476 0.034306L13.7596 0.0208813L13.6774 0.0089498C13.6233 0.00299388 13.569 6.51869e-06 13.5145 0H13.494C13.4396 6.51869e-06 13.3852 0.00299388 13.3311 0.0089498L13.2504 0.0208813C13.2211 0.0208813 13.1903 0.0283393 13.1609 0.034306C13.1316 0.0402728 13.1007 0.0492266 13.0714 0.0566851C13.042 0.0641436 13.0186 0.0686163 12.9936 0.0775665C12.9687 0.0865166 12.9364 0.0969588 12.9085 0.105909L12.8307 0.135745L12.7544 0.171544C12.728 0.184969 12.7001 0.196901 12.6737 0.211818C12.6473 0.226735 12.6268 0.238668 12.6033 0.253585L12.5255 0.301321L12.4522 0.356513C12.4301 0.372921 12.4081 0.387841 12.3876 0.405741C12.367 0.423641 12.3039 0.478831 12.2643 0.519107L6.98172 5.8892C6.65092 6.22548 6.46508 6.68158 6.46508 7.15715C6.46508 7.63271 6.65092 8.08881 6.98172 8.42509C7.31252 8.76136 7.76118 8.95028 8.229 8.95028C8.69682 8.95028 9.14548 8.76136 9.47628 8.42509L9.46161 8.43105Z" fill="#121212"/>
<path d="M25.2391 11.9395H20.5435C20.0765 11.9395 19.6286 12.1281 19.2984 12.4638C18.9681 12.7995 18.7826 13.2548 18.7826 13.7296C18.7826 14.2043 18.9681 14.6596 19.2984 14.9953C19.6286 15.331 20.0765 15.5196 20.5435 15.5196H23.4783V33.4199H3.52174V15.5196H6.45652C6.92353 15.5196 7.37142 15.331 7.70165 14.9953C8.03187 14.6596 8.21739 14.2043 8.21739 13.7296C8.21739 13.2548 8.03187 12.7995 7.70165 12.4638C7.37142 12.1281 6.92353 11.9395 6.45652 11.9395H1.76087C1.29386 11.9395 0.845975 12.1281 0.515748 12.4638C0.185521 12.7995 0 13.2548 0 13.7296V35.21C0 35.6847 0.185521 36.14 0.515748 36.4757C0.845975 36.8114 1.29386 37 1.76087 37H25.2391C25.7061 37 26.154 36.8114 26.4843 36.4757C26.8145 36.14 27 35.6847 27 35.21V13.7296C27 13.2548 26.8145 12.7995 26.4843 12.4638C26.154 12.1281 25.7061 11.9395 25.2391 11.9395Z" fill="#121212"/>
</svg>
