<svg width="33" height="35" viewBox="0 0 33 35" fill="none" xmlns="http://www.w3.org/2000/svg">
<path d="M31.4032 0H1.59677C1.17328 0 0.767138 0.167612 0.467685 0.465965C0.168232 0.764319 0 1.16897 0 1.59091V33.4091C0 33.831 0.168232 34.2357 0.467685 34.534C0.767138 34.8324 1.17328 35 1.59677 35H25.0161C25.4396 35 25.8458 34.8324 26.1452 34.534C26.4447 34.2357 26.6129 33.831 26.6129 33.4091V28.6364H31.4032C31.8267 28.6364 32.2329 28.4688 32.5323 28.1704C32.8318 27.872 33 27.4674 33 27.0455V1.59091C33 1.16897 32.8318 0.764319 32.5323 0.465965C32.2329 0.167612 31.8267 0 31.4032 0ZM26.6129 11.6667H29.8064V16.9697H26.6129V11.6667ZM29.8064 8.48485H26.6129V3.18182H29.8064V8.48485ZM23.4194 31.8182H3.19355V3.18182H23.4194V31.8182ZM29.8064 25.4545H26.6129V20.1515H29.8064V25.4545Z" fill="#121212"/>
<path d="M16.7462 15.9091H14.9032V14.0677C14.9032 13.6457 14.735 13.2411 14.4355 12.9427C14.1361 12.6444 13.7299 12.4767 13.3065 12.4767C12.883 12.4767 12.4768 12.6444 12.1774 12.9427C11.8779 13.2411 11.7097 13.6457 11.7097 14.0677V15.9038H9.86806C9.44457 15.9038 9.03843 16.0714 8.73897 16.3698C8.43952 16.6681 8.27129 17.0728 8.27129 17.4947C8.27129 17.9167 8.43952 18.3213 8.73897 18.6197C9.03843 18.918 9.44457 19.0856 9.86806 19.0856H11.7097V20.9218C11.7097 21.3438 11.8779 21.7484 12.1774 22.0468C12.4768 22.3451 12.883 22.5127 13.3065 22.5127C13.7299 22.5127 14.1361 22.3451 14.4355 22.0468C14.735 21.7484 14.9032 21.3438 14.9032 20.9218V19.091H16.7462C17.1697 19.091 17.5758 18.9233 17.8753 18.625C18.1747 18.3266 18.3429 17.922 18.3429 17.5C18.3429 17.0781 18.1747 16.6735 17.8753 16.3751C17.5758 16.0767 17.1697 15.9091 16.7462 15.9091Z" fill="#121212"/>
</svg>
