<svg width="35" height="31" viewBox="0 0 35 31" fill="none" xmlns="http://www.w3.org/2000/svg">
<path d="M33.4091 0H1.59091C1.16897 0 0.764321 0.168933 0.465967 0.469638C0.167614 0.770343 0 1.17819 0 1.60345V29.3966C0 29.8218 0.167614 30.2297 0.465967 30.5304C0.764321 30.8311 1.16897 31 1.59091 31H33.4091C33.831 31 34.2357 30.8311 34.534 30.5304C34.8324 30.2297 35 29.8218 35 29.3966V1.60345C35 1.17819 34.8324 0.770343 34.534 0.469638C34.2357 0.168933 33.831 0 33.4091 0ZM31.8182 3.2069V7.48276H3.18182V3.2069H31.8182ZM3.18182 27.7931V10.6897H31.8182V27.7931H3.18182Z" fill="#121212"/>
<path d="M18.9981 13.958C18.7972 13.9001 18.5869 13.8826 18.3793 13.9065C18.1717 13.9305 17.9708 13.9955 17.7881 14.0977C17.6054 14.2 17.4445 14.3375 17.3145 14.5024C17.1845 14.6674 17.0881 14.8565 17.0307 15.059L14.9095 22.5418C14.852 22.7443 14.8346 22.9562 14.8584 23.1655C14.8822 23.3747 14.9467 23.5772 15.0481 23.7614C15.1495 23.9455 15.286 24.1077 15.4497 24.2387C15.6133 24.3697 15.801 24.4669 16.0019 24.5247C16.1447 24.5654 16.2923 24.5861 16.4407 24.5862C16.7862 24.586 17.1222 24.4724 17.398 24.2627C17.6738 24.053 17.8743 23.7585 17.9693 23.4237L20.0905 15.9409C20.148 15.7384 20.1654 15.5265 20.1416 15.3173C20.1178 15.108 20.0534 14.9055 19.9519 14.7214C19.8505 14.5372 19.714 14.375 19.5504 14.244C19.3867 14.1131 19.199 14.0159 18.9981 13.958Z" fill="#121212"/>
<path d="M12.1707 14.2814C12.0119 14.1445 11.8279 14.0405 11.6293 13.9753C11.4306 13.9101 11.2211 13.8849 11.0128 13.9013C10.8045 13.9177 10.6015 13.9753 10.4152 14.0707C10.229 14.1662 10.0633 14.2977 9.92748 14.4578L6.74566 18.2072C6.49848 18.4978 6.36261 18.868 6.36261 19.2508C6.36261 19.6335 6.49848 20.0037 6.74566 20.2943L9.92748 24.0277C10.0625 24.1913 10.2284 24.3261 10.4156 24.4244C10.6028 24.5227 10.8075 24.5825 11.0179 24.6003C11.2282 24.618 11.44 24.5934 11.6408 24.5279C11.8416 24.4624 12.0275 24.3572 12.1876 24.2185C12.3476 24.0799 12.4788 23.9105 12.5733 23.7203C12.6678 23.53 12.7237 23.3227 12.738 23.1105C12.7522 22.8982 12.7244 22.6852 12.6561 22.4839C12.5878 22.2826 12.4805 22.097 12.3404 21.9379L10.0468 19.2467L12.343 16.5423C12.4788 16.3822 12.582 16.1968 12.6467 15.9966C12.7114 15.7964 12.7364 15.5852 12.7201 15.3753C12.7039 15.1654 12.6468 14.9607 12.552 14.773C12.4573 14.5853 12.3268 14.4183 12.168 14.2814H12.1707Z" fill="#121212"/>
<path d="M25.07 14.455C24.7928 14.1404 24.404 13.9481 23.9875 13.9198C23.571 13.8914 23.1601 14.0293 22.8434 14.3035C22.5268 14.5777 22.3298 14.9664 22.295 15.3857C22.2601 15.805 22.3902 16.2213 22.6571 16.5449L24.9494 19.236L22.6545 21.9405C22.3802 22.2637 22.2446 22.6834 22.2774 23.1074C22.3102 23.5314 22.5088 23.9249 22.8295 24.2013C23.1501 24.4778 23.5666 24.6145 23.9873 24.5814C24.408 24.5483 24.7984 24.3482 25.0726 24.025L28.2545 20.2756C28.5017 19.9849 28.6375 19.6148 28.6375 19.232C28.6375 18.8492 28.5017 18.479 28.2545 18.1884L25.07 14.455Z" fill="#121212"/>
</svg>
