<svg width="35" height="32" viewBox="0 0 35 32" fill="none" xmlns="http://www.w3.org/2000/svg">
<path d="M33.4091 0H1.59091C1.16897 0 0.764321 0.163132 0.465967 0.453511C0.167614 0.74389 0 1.13773 0 1.54839V30.4516C0 30.8623 0.167614 31.2561 0.465967 31.5465C0.764321 31.8369 1.16897 32 1.59091 32H33.4091C33.831 32 34.2357 31.8369 34.534 31.5465C34.8324 31.2561 35 30.8623 35 30.4516V1.54839C35 1.13773 34.8324 0.74389 34.534 0.453511C34.2357 0.163132 33.831 0 33.4091 0ZM31.8182 6.19355H27.0455V3.09677H31.8182V6.19355ZM23.8636 6.19355H19.0909V3.09677H23.8636V6.19355ZM15.9091 6.19355H11.1364V3.09677H15.9091V6.19355ZM3.18182 3.09677H7.95455V6.19355H3.18182V3.09677ZM31.8182 28.9032H3.18182V9.29032H31.8182V28.9032Z" fill="#121212"/>
<path d="M20.9271 17.5484H19.0909V15.7561C19.0909 15.3454 18.9233 14.9516 18.625 14.6612C18.3266 14.3708 17.922 14.2077 17.5 14.2077C17.0781 14.2077 16.6734 14.3708 16.3751 14.6612C16.0767 14.9516 15.9091 15.3454 15.9091 15.7561V17.5432H14.0729C13.651 17.5432 13.2464 17.7063 12.948 17.9967C12.6496 18.2871 12.482 18.6809 12.482 19.0916C12.482 19.5022 12.6496 19.8961 12.948 20.1865C13.2464 20.4768 13.651 20.64 14.0729 20.64H15.9091V22.4258C15.9091 22.8364 16.0767 23.2303 16.3751 23.5206C16.6734 23.811 17.0781 23.9742 17.5 23.9742C17.922 23.9742 18.3266 23.811 18.625 23.5206C18.9233 23.2303 19.0909 22.8364 19.0909 22.4258V20.6451H20.9271C21.349 20.6451 21.7537 20.482 22.0521 20.1916C22.3504 19.9012 22.518 19.5074 22.518 19.0967C22.518 18.6861 22.3504 18.2922 22.0521 18.0019C21.7537 17.7115 21.349 17.5484 20.9271 17.5484Z" fill="#121212"/>
</svg>
