<svg width="35" height="39" viewBox="0 0 35 39" fill="none" xmlns="http://www.w3.org/2000/svg">
<path d="M22.9373 33.0388C22.7142 33.0842 22.5021 33.1741 22.313 33.3035C22.1239 33.4328 21.9615 33.5991 21.8351 33.7927C21.7088 33.9863 21.6209 34.2035 21.5765 34.4319C21.5321 34.6603 21.5321 34.8955 21.5765 35.1239L22.0527 37.5725C22.1308 37.9747 22.3425 38.3367 22.6519 38.597C22.9614 38.8572 23.3493 38.9997 23.7497 39C23.8635 38.9995 23.9771 38.9881 24.0888 38.966C24.3119 38.9206 24.524 38.8307 24.7131 38.7013C24.9022 38.5719 25.0646 38.4057 25.1909 38.2121C25.3173 38.0185 25.4052 37.8012 25.4496 37.5728C25.494 37.3444 25.494 37.1093 25.4496 36.8809L24.9792 34.4352C24.9352 34.206 24.8474 33.9878 24.7209 33.7934C24.5943 33.599 24.4315 33.4321 24.2417 33.3023C24.052 33.1726 23.839 33.0825 23.6152 33.0372C23.3913 32.992 23.1609 32.9925 22.9373 33.0388Z" fill="#121212"/>
<path d="M30.8743 24.9171C30.9881 24.9168 31.1016 24.9054 31.2134 24.8831L33.606 24.3955C33.829 24.35 34.0411 24.2601 34.2302 24.1307C34.4193 24.0014 34.5817 23.8351 34.7081 23.6415C34.8344 23.4479 34.9223 23.2307 34.9667 23.0023C35.0111 22.7739 35.0111 22.5388 34.9668 22.3104C34.9224 22.082 34.8346 21.8647 34.7082 21.6711C34.5819 21.4774 34.4196 21.3112 34.2305 21.1818C34.0414 21.0524 33.8293 20.9624 33.6063 20.9169C33.3833 20.8715 33.1537 20.8714 32.9306 20.9168L30.538 21.4045C30.1164 21.4903 29.7411 21.7335 29.4849 22.087C29.2287 22.4404 29.1101 22.8788 29.152 23.3168C29.194 23.7549 29.3935 24.1613 29.7118 24.4571C30.0301 24.7528 30.4444 24.9168 30.8743 24.9171Z" fill="#121212"/>
<path d="M28.4674 32.0443L30.4949 33.4319C30.6844 33.5614 30.897 33.6513 31.1204 33.6966C31.3439 33.742 31.5738 33.7418 31.7972 33.6961C32.0206 33.6504 32.233 33.5601 32.4223 33.4303C32.6116 33.3006 32.7741 33.1339 32.9005 32.9399C33.0269 32.7458 33.1147 32.5281 33.159 32.2993C33.2032 32.0705 33.203 31.835 33.1584 31.6062C33.1138 31.3775 33.0256 31.16 32.8989 30.9661C32.7722 30.7723 32.6094 30.6059 32.4199 30.4765L30.3997 29.0889C30.2107 28.957 29.9981 28.8649 29.7741 28.8176C29.5502 28.7704 29.3193 28.7691 29.0949 28.8137C28.8704 28.8583 28.6568 28.948 28.4664 29.0776C28.2759 29.2072 28.1125 29.3742 27.9854 29.5688C27.8583 29.7634 27.7701 29.9819 27.7259 30.2117C27.6817 30.4414 27.6823 30.6778 27.7278 30.9073C27.7733 31.1367 27.8627 31.3547 27.9909 31.5486C28.1191 31.7425 28.2835 31.9085 28.4746 32.0369L28.4674 32.0443Z" fill="#121212"/>
<path d="M1.72442 38.6557C1.9519 38.6559 2.17717 38.6102 2.38739 38.5212C2.59761 38.4322 2.78864 38.3017 2.94958 38.137L7.56736 33.4082C9.23222 34.532 11.2244 35.0339 13.2084 34.8294C15.1924 34.6248 17.0469 33.7263 18.4596 32.2852L21.7252 28.941C22.0505 28.6079 22.2333 28.1561 22.2333 27.6849C22.2333 27.2138 22.0505 26.762 21.7252 26.4289C21.3999 26.0957 20.9587 25.9086 20.4986 25.9086C20.0385 25.9086 19.5973 26.0957 19.272 26.4289L16.0107 29.7745C15.2495 30.5515 14.2721 31.068 13.2127 31.2533C12.1533 31.4385 11.0639 31.2832 10.0942 30.8089L12.7407 28.0987C13.066 27.7656 13.2488 27.3138 13.2488 26.8426C13.2488 26.3715 13.066 25.9197 12.7407 25.5865C12.4154 25.2534 11.9742 25.0663 11.5141 25.0663C11.0541 25.0663 10.6128 25.2534 10.2875 25.5865L7.64096 28.31C7.17843 27.3163 7.02791 26.2002 7.21008 25.1152C7.39226 24.0303 7.8982 23.0298 8.65831 22.2513L11.9225 18.9086C12.0835 18.7443 12.211 18.5489 12.2977 18.3338L14.0654 13.9641C14.4765 12.9473 15.1853 12.0861 16.0942 11.4991C17.0032 10.9121 18.0676 10.6282 19.1407 10.6865L17.7063 14.233C17.5308 14.6691 17.5317 15.1586 17.7086 15.594C17.8856 16.0293 18.2243 16.3749 18.65 16.5546C19.0758 16.7343 19.5539 16.7334 19.979 16.5522C20.4042 16.3709 20.7416 16.0241 20.9171 15.5881L22.3515 12.0415C23.1491 12.778 23.7041 13.7495 23.9403 14.8224C24.1765 15.8952 24.0822 17.0166 23.6704 18.0323L21.9027 22.4064C21.8105 22.6225 21.7613 22.8552 21.7579 23.091C21.7546 23.3267 21.7972 23.5608 21.8833 23.7795C21.9693 23.9982 22.0971 24.1971 22.2591 24.3646C22.4212 24.5321 22.6142 24.6648 22.8269 24.755C23.0396 24.8452 23.2678 24.8911 23.4981 24.8899C23.7283 24.8887 23.956 24.8406 24.1678 24.7482C24.3797 24.6558 24.5714 24.5211 24.7318 24.352C24.8922 24.1828 25.018 23.9826 25.1019 23.763L26.8697 19.3948C27.6335 17.5069 27.737 15.4067 27.1627 13.4496C26.5884 11.4925 25.3716 9.79865 23.7181 8.65456L26.2131 2.4835C26.3053 2.26746 26.3545 2.03475 26.3579 1.79899C26.3612 1.56324 26.3186 1.32917 26.2325 1.11048C26.1465 0.891786 26.0187 0.692867 25.8567 0.525355C25.6946 0.357842 25.5016 0.225106 25.2889 0.134903C25.0761 0.0447002 24.848 -0.00115483 24.6177 2.20936e-05C24.3875 0.00119901 24.1598 0.0493802 23.948 0.141753C23.7361 0.234127 23.5444 0.368835 23.384 0.537995C23.2236 0.707155 23.0978 0.907373 23.0138 1.12693L20.5174 7.29651C18.5569 6.90817 16.5257 7.22563 14.7677 8.19512C13.0097 9.16462 11.6329 10.7266 10.8705 12.6164L9.23553 16.6595L6.21377 19.7465C4.8032 21.1922 3.92314 23.0922 3.72227 25.1255C3.5214 27.1588 4.01203 29.2007 5.11128 30.9064L0.500711 35.6352C0.260807 35.8835 0.0978508 36.1988 0.0322897 36.5416C-0.0332713 36.8844 0.00148178 37.2393 0.132189 37.562C0.262896 37.8846 0.483735 38.1605 0.766999 38.3551C1.05026 38.5497 1.38333 38.6543 1.72442 38.6557Z" fill="#121212"/>
</svg>
