<svg width="33" height="24" viewBox="0 0 33 24" fill="none" xmlns="http://www.w3.org/2000/svg">
<path d="M27.8362 0.611084H5.78983C4.46096 0.611084 3.1865 1.13287 2.24685 2.06166C1.30719 2.99044 0.779297 4.25015 0.779297 5.56365V18.4403C0.779297 19.7538 1.30719 21.0135 2.24685 21.9423C3.1865 22.8711 4.46096 23.3929 5.78983 23.3929H27.8362C29.1651 23.3929 30.4395 22.8711 31.3792 21.9423C32.3188 21.0135 32.8467 19.7538 32.8467 18.4403V5.56365C32.8467 4.25015 32.3188 2.99044 31.3792 2.06166C30.4395 1.13287 29.1651 0.611084 27.8362 0.611084ZM5.78983 2.59211H27.8362C28.2068 2.59491 28.5738 2.66543 28.9185 2.80012L16.5525 13.1411L4.37686 2.9586C4.80909 2.72073 5.29513 2.59466 5.78983 2.59211ZM2.78351 18.4403V5.56365C2.78245 5.16933 2.8608 4.77874 3.014 4.41465L11.4417 11.4572L3.08415 19.7181C2.88888 19.3196 2.78617 18.8831 2.78351 18.4403ZM27.8362 21.4119H5.78983C5.34191 21.4092 4.90024 21.3077 4.49711 21.1147L12.9749 12.7449L15.9111 15.1914C16.09 15.3427 16.3171 15.4268 16.5525 15.4292C16.7913 15.4292 17.0223 15.3449 17.2038 15.1914L20.4206 12.5071L29.2291 21.0553C28.8009 21.2838 28.3229 21.4062 27.8362 21.4119ZM30.8425 18.4403C30.8412 18.8418 30.7595 19.239 30.602 19.6091L21.9538 11.2195L30.2312 4.28589C30.3023 4.21908 30.3631 4.14232 30.4116 4.05807C30.6921 4.50777 30.8413 5.02544 30.8425 5.55375V18.4403Z" fill="#E52038"/>
</svg>
