<svg width="31" height="31" viewBox="0 0 31 31" fill="none" xmlns="http://www.w3.org/2000/svg">
<path d="M30.8217 14.0802C28.2157 8.05697 23.3484 3.26722 17.2431 0.718156C16.9959 0.624335 16.7212 0.631056 16.4789 0.736848C16.2367 0.842641 16.0467 1.0389 15.9504 1.28275C15.8982 1.40419 15.8711 1.53471 15.8706 1.66666C15.8701 1.7986 15.8964 1.92931 15.9477 2.05111C15.999 2.17291 16.0745 2.28334 16.1696 2.37592C16.2647 2.4685 16.3776 2.54136 16.5016 2.59022C22.1297 4.9419 26.6162 9.35872 29.0179 14.9122C29.0948 15.0863 29.2206 15.2349 29.3805 15.3403C29.5405 15.4457 29.7276 15.5034 29.9198 15.5065C30.0616 15.5059 30.2016 15.4755 30.3307 15.4174C30.4531 15.3631 30.5633 15.285 30.6547 15.1878C30.7461 15.0906 30.8168 14.9763 30.8626 14.8515C30.9084 14.7268 30.9284 14.5943 30.9213 14.4618C30.9143 14.3292 30.8804 14.1995 30.8217 14.0802Z" fill="#E52038"/>
<path d="M15.9808 7.96862C19.392 9.39221 22.1139 12.0649 23.5767 15.4272C23.6482 15.5975 23.7692 15.743 23.9244 15.8453C24.0796 15.9476 24.262 16.002 24.4486 16.0017C24.5839 16.0007 24.7173 15.9702 24.8394 15.9125C25.0698 15.8009 25.2482 15.6062 25.3377 15.3685C25.4272 15.1307 25.421 14.8681 25.3204 14.6348C23.6612 10.8148 20.5685 7.77916 16.6922 6.16588C16.455 6.08505 16.1957 6.09515 15.9656 6.19419C15.7355 6.29323 15.5514 6.474 15.4496 6.70076C15.3554 6.93899 15.3581 7.204 15.4571 7.44033C15.5561 7.67665 15.7437 7.86596 15.9808 7.96862Z" fill="#E52038"/>
<path d="M25.6309 19.7361C25.4057 19.4931 25.1337 19.297 24.8309 19.1592C24.528 19.0214 24.2004 18.9448 23.8672 18.9338C23.5353 18.9439 23.2089 19.0202 22.9075 19.158C22.6061 19.2959 22.3361 19.4925 22.1135 19.7361C21.2784 20.5351 20.4567 21.3473 19.6483 22.1728C19.6022 22.2333 19.5434 22.2832 19.476 22.3191C19.4085 22.355 19.334 22.376 19.2575 22.3808C19.1574 22.3773 19.0603 22.3464 18.9769 22.2916C18.4458 22.0044 17.8746 21.7766 17.3635 21.4596C15.0172 19.9548 12.9355 18.0812 11.2006 15.9127C10.2976 14.863 9.55481 13.6884 8.99592 12.4261C8.93536 12.3222 8.9142 12.2003 8.93624 12.0824C8.95827 11.9644 9.02205 11.858 9.11617 11.7823C9.93789 10.9899 10.7496 10.1876 11.5513 9.37535C11.8162 9.15784 12.0294 8.88533 12.1757 8.57719C12.322 8.26904 12.3979 7.93282 12.3979 7.59243C12.3979 7.25203 12.322 6.91581 12.1757 6.60766C12.0294 6.29951 11.8162 6.027 11.5513 5.8095C10.8999 5.17557 10.2586 4.54164 9.61722 3.89781C8.97587 3.25397 8.29444 2.58043 7.61301 1.91678C7.39384 1.66872 7.12351 1.4699 6.82017 1.33367C6.51683 1.19744 6.18749 1.12695 5.8543 1.12695C5.52111 1.12695 5.19179 1.19744 4.88845 1.33367C4.5851 1.4699 4.31477 1.66872 4.09561 1.91678C3.26386 2.7191 2.46218 3.55113 1.62041 4.34354C0.866789 5.04101 0.414483 5.99901 0.357741 7.01793C0.284853 8.6877 0.589536 10.3525 1.24962 11.8912C2.4918 15.098 4.29277 18.0649 6.57082 20.6573C9.55842 24.2029 13.275 27.0796 17.4737 29.0965C19.3421 30.062 21.3858 30.6512 23.4864 30.8299H23.8772C24.5173 30.8552 25.1552 30.7395 25.7445 30.4911C26.3338 30.2427 26.8598 29.8678 27.2844 29.3936C27.9959 28.6111 28.7875 27.8979 29.5391 27.1551C29.799 26.9365 30.0078 26.6648 30.1509 26.3587C30.2941 26.0525 30.3682 25.7193 30.3682 25.382C30.3682 25.0448 30.2941 24.7115 30.1509 24.4054C30.0078 24.0993 29.799 23.8275 29.5391 23.609C28.2631 22.3214 26.9604 21.0304 25.6309 19.7361ZM28.1562 25.7881L27.4046 26.5211C26.8835 27.0164 26.3424 27.5116 25.8313 28.096C25.5967 28.3657 25.3012 28.577 24.9687 28.7129C24.6362 28.8488 24.2761 28.9056 23.9173 28.8785H23.6367C21.7992 28.7169 20.0134 28.1914 18.3857 27.3333C14.4395 25.4391 10.9452 22.7381 8.13411 19.4092C5.99589 16.9903 4.30036 14.2217 3.12357 11.2276C2.56826 9.96039 2.30798 8.58607 2.36196 7.20612C2.36957 6.94288 2.43022 6.68378 2.54034 6.44397C2.65046 6.20417 2.80785 5.98847 3.0033 5.8095C3.5244 5.32415 4.00542 4.81899 4.52651 4.31383C4.84719 3.99686 5.16786 3.66999 5.52862 3.32331C5.62147 3.21835 5.74341 3.14259 5.87936 3.1054C6.01968 3.13902 6.14584 3.21523 6.24012 3.32331C6.68105 3.74923 7.12197 4.18506 7.55288 4.62089L8.21428 5.27462L9.21638 6.26514L10.1684 7.20612C10.5392 7.57261 10.5191 7.64195 10.1684 7.97872L9.83768 8.3155C9.14623 9.00886 8.4648 9.68241 7.74328 10.3758C7.36735 10.73 7.11157 11.1906 7.01109 11.6943C6.91061 12.198 6.97036 12.72 7.18211 13.1888C7.82153 14.621 8.66518 15.9552 9.68737 17.1509C11.5623 19.4776 13.8101 21.4852 16.3414 23.094C16.7422 23.3317 17.133 23.5298 17.4838 23.6982L18.0249 23.9656C18.4118 24.1877 18.8502 24.3071 19.2976 24.3123C19.6433 24.3088 19.9846 24.2348 20.3001 24.0951C20.6157 23.9553 20.8987 23.7528 21.1314 23.5001C21.9231 22.6977 22.7248 21.9152 23.5666 21.0931C23.6523 20.9828 23.7718 20.9029 23.9073 20.8653C24.0452 20.9035 24.1678 20.9831 24.258 21.0931C25.5942 22.4138 26.9103 23.7114 28.2063 24.9858C28.4769 25.3424 28.5069 25.4316 28.1562 25.7881Z" fill="#E52038"/>
</svg>
