<svg width="33" height="33" viewBox="0 0 33 33" fill="none" xmlns="http://www.w3.org/2000/svg">
<path d="M32.2227 16.5168C32.2226 13.4876 31.3443 10.522 29.6917 7.97101C28.0391 5.42004 25.6816 3.39063 22.8982 2.12312C20.1148 0.855611 17.0222 0.403097 13.9866 0.819173C10.9511 1.23525 8.09977 2.50248 5.77035 4.4708C3.44093 6.43911 1.731 9.02605 0.843051 11.9252C-0.0448937 14.8244 -0.0736488 17.9144 0.760191 20.8293C1.59403 23.7441 3.25553 26.3617 5.54793 28.3721C7.84032 30.3824 10.6676 31.7013 13.6949 32.1725V21.1069H9.61636V16.5168H13.6877V13.0231C13.6877 9.05285 16.0821 6.85758 19.7449 6.85758C20.9474 6.87421 22.147 6.97779 23.3341 7.1675V11.0673H21.3127C19.3197 11.0673 18.6998 12.2906 18.6998 13.542V16.5168H23.1464L22.4338 21.0975H18.695V32.1725C22.4661 31.5816 25.9003 29.6804 28.38 26.8106C30.8597 23.9408 32.2223 20.2908 32.2227 16.5168Z" fill="black"/>
<path d="M22.4294 21.1062L23.142 16.5255H18.6953V13.5414C18.6953 12.2899 19.3153 11.0667 21.3083 11.0667H23.3297V7.16686C22.1425 6.97715 20.9429 6.87356 19.7405 6.85693C16.0777 6.85693 13.6833 9.05221 13.6833 13.0225V16.5161H9.6167V21.1062H13.6881V32.1812C15.3487 32.4379 17.0395 32.4379 18.7001 32.1812V21.1062H22.4294Z" fill="white"/>
</svg>
