<svg width="34" height="33" viewBox="0 0 34 33" fill="none" xmlns="http://www.w3.org/2000/svg">
<path d="M16.5509 32.3644C25.6828 32.3644 33.0857 25.2689 33.0857 16.5162C33.0857 7.76345 25.6828 0.667969 16.5509 0.667969C7.41898 0.667969 0.0161133 7.76345 0.0161133 16.5162C0.0161133 25.2689 7.41898 32.3644 16.5509 32.3644Z" fill="black"/>
<path d="M16.551 8.33373C19.3312 8.33373 19.6595 8.34547 20.7569 8.39243C21.4176 8.40012 22.0721 8.51605 22.6921 8.73522C23.1429 8.89707 23.551 9.15197 23.8875 9.48184C24.2333 9.80403 24.4995 10.1963 24.6665 10.63C24.8962 11.2231 25.0172 11.8498 25.0241 12.4824C25.0756 13.5343 25.0854 13.8513 25.0854 16.5161C25.0854 19.181 25.0854 19.4956 25.0241 20.5474C25.0172 21.18 24.8962 21.8068 24.6665 22.3999C24.4933 22.8302 24.2283 23.221 23.8882 23.5473C23.5482 23.8736 23.1408 24.1282 22.6921 24.2946C22.0721 24.5138 21.4176 24.6297 20.7569 24.6374C19.6595 24.6844 19.3312 24.6961 16.551 24.6961C13.7707 24.6961 13.4424 24.6844 12.345 24.6374C11.6843 24.6297 11.0298 24.5138 10.4098 24.2946C9.96111 24.1282 9.55367 23.8736 9.21366 23.5473C8.87365 23.221 8.60857 22.8302 8.43544 22.3999C8.20574 21.8068 8.08474 21.18 8.07779 20.5474C8.02635 19.4956 8.01655 19.1786 8.01655 16.5161C8.01655 13.8536 8.01655 13.5343 8.07779 12.4824C8.08474 11.8498 8.20574 11.2231 8.43544 10.63C8.60245 10.1963 8.86861 9.80403 9.21441 9.48184C9.55094 9.15197 9.95905 8.89707 10.4098 8.73522C11.0298 8.51605 11.6843 8.40012 12.345 8.39243C13.4424 8.34547 13.7707 8.33373 16.551 8.33373ZM16.551 6.5376C13.7241 6.5376 13.3665 6.5376 12.2593 6.59629C11.395 6.61492 10.5402 6.77369 9.73127 7.06587C9.03942 7.32183 8.41112 7.71372 7.88673 8.21633C7.36234 8.71895 6.95347 9.32117 6.68642 9.98429C6.38067 10.7586 6.21498 11.5772 6.1965 12.405C6.14506 13.4709 6.13281 13.8137 6.13281 16.5208C6.13281 19.2279 6.13281 19.573 6.1965 20.6343C6.21537 21.4627 6.38104 22.2821 6.68642 23.0573C6.95403 23.7198 7.36311 24.3215 7.88745 24.8236C8.41179 25.3258 9.03981 25.7174 9.73127 25.9734C10.5399 26.2667 11.3948 26.4255 12.2593 26.443C13.3689 26.4923 13.729 26.504 16.551 26.504C19.3729 26.504 19.7354 26.4923 20.8426 26.443C21.7071 26.4255 22.562 26.2667 23.3706 25.9734C24.0621 25.7174 24.6901 25.3258 25.2145 24.8236C25.7388 24.3215 26.1479 23.7198 26.4155 23.0573C26.7209 22.2821 26.8865 21.4627 26.9054 20.6343C26.9568 19.5707 26.9691 19.2256 26.9691 16.5208C26.9691 13.816 26.9691 13.4685 26.9054 12.405C26.8869 11.5772 26.7212 10.7586 26.4155 9.98429C26.1484 9.32117 25.7396 8.71895 25.2152 8.21633C24.6908 7.71372 24.0625 7.32183 23.3706 7.06587C22.5617 6.77369 21.7069 6.61492 20.8426 6.59629C19.733 6.54699 19.3729 6.5376 16.551 6.5376Z" fill="white"/>
<path d="M16.5506 11.3906C15.4929 11.3902 14.4588 11.6904 13.579 12.2533C12.6993 12.8162 12.0136 13.6165 11.6084 14.553C11.2033 15.4895 11.0971 16.5201 11.3031 17.5145C11.5092 18.5089 12.0183 19.4224 12.766 20.1395C13.5138 20.8565 14.4666 21.3449 15.504 21.5428C16.5414 21.7408 17.6167 21.6394 18.594 21.2516C19.5712 20.8637 20.4065 20.2068 20.9942 19.3638C21.5819 18.5209 21.8956 17.5299 21.8956 16.5161C21.8959 15.8431 21.7579 15.1766 21.4895 14.5548C21.221 13.933 20.8273 13.3679 20.331 12.892C19.8346 12.416 19.2453 12.0384 18.5966 11.7808C17.948 11.5232 17.2527 11.3906 16.5506 11.3906ZM16.5506 19.843C15.864 19.843 15.1928 19.6478 14.6219 19.2822C14.0511 18.9165 13.6062 18.3967 13.3435 17.7887C13.0809 17.1806 13.0123 16.5116 13.1464 15.8661C13.2805 15.2207 13.6114 14.6279 14.097 14.1627C14.5827 13.6975 15.2014 13.3809 15.8749 13.2527C16.5484 13.1246 17.2464 13.1909 17.8806 13.443C18.5148 13.6952 19.0568 14.122 19.4379 14.6694C19.819 15.2168 20.0222 15.8603 20.0217 16.5184C20.0204 17.3999 19.6541 18.245 19.0033 18.8679C18.3525 19.4908 17.4703 19.8407 16.5506 19.8407V19.843Z" fill="white"/>
<path d="M22.1092 12.3865C22.7991 12.3865 23.3585 11.8504 23.3585 11.1891C23.3585 10.5278 22.7991 9.9917 22.1092 9.9917C21.4192 9.9917 20.8599 10.5278 20.8599 11.1891C20.8599 11.8504 21.4192 12.3865 22.1092 12.3865Z" fill="white"/>
</svg>
