<svg width="33" height="33" viewBox="0 0 33 33" fill="none" xmlns="http://www.w3.org/2000/svg">
<path d="M16.9107 32.3644C25.7659 32.3644 32.9444 25.2689 32.9444 16.5162C32.9444 7.76345 25.7659 0.667969 16.9107 0.667969C8.05549 0.667969 0.876953 7.76345 0.876953 16.5162C0.876953 25.2689 8.05549 32.3644 16.9107 32.3644Z" fill="black"/>
<path d="M27.1531 11.4308C27.0313 10.9803 26.7916 10.5694 26.4579 10.2397C26.1243 9.9099 25.7087 9.67288 25.2528 9.5525C23.5948 9.12988 16.9106 9.12988 16.9106 9.12988C16.9106 9.12988 10.2263 9.12988 8.55878 9.57129C8.10296 9.69167 7.6873 9.92868 7.35368 10.2584C7.02006 10.5882 6.78028 10.999 6.65848 11.4496C6.21192 13.0931 6.21191 16.5351 6.21191 16.5351C6.21191 16.5351 6.21192 19.9747 6.65848 21.623C6.78144 22.0717 7.02181 22.4804 7.35541 22.8081C7.68901 23.1358 8.10406 23.3708 8.55878 23.4895C10.2263 23.9215 16.9106 23.9215 16.9106 23.9215C16.9106 23.9215 23.5948 23.9215 25.2623 23.4801C25.7171 23.3614 26.1321 23.1264 26.4657 22.7987C26.7993 22.471 27.0397 22.0623 27.1626 21.6136C27.6092 19.9701 27.6092 16.5257 27.6092 16.5257C27.6092 16.5257 27.5997 13.079 27.1531 11.4308ZM14.7727 19.6954V13.3561L20.3263 16.5257L14.7727 19.6954Z" fill="white"/>
</svg>
