<svg width="63" height="50" viewBox="0 0 63 50" fill="none" xmlns="http://www.w3.org/2000/svg">
<g clip-path="url(#clip0_1_500)">
<path d="M5.9811 7.53964H9.17097M5.9811 13.8888H9.17097M5.9811 20.238H9.17097M5.9811 26.5873H9.17097M5.9811 32.9365H9.17097M5.9811 39.2857H9.17097M53.8292 7.53964H57.0191M53.8292 13.8888H57.0191M53.8292 20.238H57.0191M25.4234 45.6349H1.19629V1.19043H61.8039V25" stroke="#FEFEFE" stroke-width="1.5" stroke-linecap="round" stroke-linejoin="round"/>
<path d="M21.9304 29.6825V17.0635L31.8988 23.3809L21.9304 29.6825Z" stroke="white" stroke-width="1.5" stroke-linecap="round" stroke-linejoin="round"/>
<path d="M55.4239 32.9365V29.7619C55.4239 28.9199 55.0879 28.1125 54.4896 27.5171C53.8914 26.9217 53.0801 26.5873 52.2341 26.5873C51.3881 26.5873 50.5767 26.9217 49.9785 27.5171C49.3803 28.1125 49.0442 28.9199 49.0442 29.7619V32.9365" stroke="white" stroke-width="1.5" stroke-miterlimit="10" stroke-linecap="round"/>
<path d="M49.0443 32.9365V26.5873C49.0443 25.7454 48.7082 24.9379 48.11 24.3425C47.5118 23.7472 46.7004 23.4127 45.8544 23.4127C45.0084 23.4127 44.1971 23.7472 43.5988 24.3425C43.0006 24.9379 42.6646 25.7454 42.6646 26.5873V32.9365" stroke="white" stroke-width="1.5" stroke-miterlimit="10" stroke-linecap="round"/>
<path d="M42.6647 31.3492V17.0635C42.6647 16.2216 42.3286 15.4141 41.7304 14.8187C41.1322 14.2234 40.3208 13.8889 39.4748 13.8889C38.6288 13.8889 37.8174 14.2234 37.2192 14.8187C36.621 15.4141 36.2849 16.2216 36.2849 17.0635V36.1111" stroke="white" stroke-width="1.5" stroke-miterlimit="10" stroke-linecap="round"/>
<path d="M60.2089 48.8096C61.2013 46.9942 61.7478 44.9708 61.8038 42.9048V32.9366C61.8038 32.0946 61.4677 31.2871 60.8695 30.6918C60.2713 30.0964 59.46 29.762 58.6139 29.762C57.7679 29.762 56.9566 30.0964 56.3584 30.6918C55.7601 31.2871 55.4241 32.0946 55.4241 32.9366V34.5239" stroke="white" stroke-width="1.5" stroke-miterlimit="10" stroke-linecap="round"/>
<path d="M31.4042 47.8254C30.4075 45.8566 29.8937 43.6808 29.905 41.4762V34.5238C29.905 33.6819 30.241 32.8744 30.8393 32.2791C31.4375 31.6837 32.2488 31.3492 33.0948 31.3492C33.9408 31.3492 34.7522 31.6837 35.3504 32.2791C35.9486 32.8744 36.2847 33.6819 36.2847 34.5238V40.8731" stroke="white" stroke-width="1.5" stroke-miterlimit="10" stroke-linecap="round"/>
</g>
<defs>
<clipPath id="clip0_1_500">
<rect width="63" height="50" fill="white"/>
</clipPath>
</defs>
</svg>
